<svg width="120" height="120" viewBox="0 0 120 120" fill="none" xmlns="http://www.w3.org/2000/svg">
<circle cx="60" cy="60" r="60" fill="#F6D100"/>
<path d="M81.3984 51.9754C82.4026 51.9875 83.2102 52.8032 83.2102 53.8052V69.9868C83.2102 79.2461 77.4214 85 68.1417 85H60.7622C59.7457 85 58.9183 84.1843 58.9062 83.1702C58.9182 82.1524 59.7422 81.3303 60.7622 81.3184H68.1417C75.455 81.3184 79.4983 77.306 79.5646 69.9868V53.8052C79.5646 52.7947 80.3856 51.9754 81.3984 51.9754ZM66.3079 36.9402C67.3243 36.9523 68.1417 37.7779 68.1417 38.7921C68.1417 39.2812 67.9455 39.75 67.5968 40.0938C67.2481 40.4376 66.776 40.6278 66.2858 40.6219H50.0464C42.7331 40.6219 38.6898 44.6562 38.6898 51.9754V69.9868C38.6898 77.306 42.7331 81.3184 50.0464 81.3184C51.0664 81.3303 51.8904 82.1524 51.9023 83.1702C51.8902 84.1843 51.0628 85 50.0464 85C40.7667 85 35 79.2461 35 69.9868V51.9754C35 42.6942 40.7667 36.9402 50.0464 36.9402H66.3079ZM69.1014 53.6854C69.7466 53.2459 70.616 53.2585 71.2526 53.7471C71.9688 54.2968 72.177 55.2851 71.7431 56.0759L64.6729 65.1809C64.3634 65.5621 63.9219 65.8138 63.4356 65.8863C62.9516 65.9354 62.4676 65.7929 62.0879 65.4895L55.3048 60.1765L49.2068 68.0909C48.916 68.4856 48.4787 68.7475 47.9928 68.818C47.5069 68.8884 47.0131 68.7615 46.6217 68.4657C45.823 67.8409 45.6754 66.6919 46.2903 65.8863L53.5152 56.4948C53.8166 56.1054 54.2609 55.8517 54.75 55.7897C55.2391 55.7277 55.7329 55.8624 56.1223 56.1641L62.9053 61.4772L68.8709 53.8714L69.1014 53.6854ZM76.0029 35.4999C78.4295 34.4898 81.227 35.0388 83.0894 36.8908C84.9518 38.7427 85.5116 41.5322 84.5075 43.9569C83.5034 46.3815 81.1334 47.9631 78.5041 47.9631C74.9252 47.9631 72.0205 45.0747 72.0082 41.5037L72.023 41.0436C72.1878 38.6061 73.719 36.4506 76.0029 35.4999ZM78.5041 38.7039C76.9544 38.7039 75.6981 39.9574 75.6981 41.5037C75.6981 43.05 76.9544 44.3035 78.5041 44.3035C80.0538 44.3035 81.3101 43.05 81.3101 41.5037C81.3101 39.9574 80.0538 38.7039 78.5041 38.7039Z" fill="#2264D1"/>
</svg>
