<svg width="120" height="120" viewBox="0 0 120 120" fill="none" xmlns="http://www.w3.org/2000/svg">
<circle cx="60" cy="60" r="60" fill="#F6D100"/>
<path d="M60.9942 65.3173C66.1539 65.3489 76.8503 65.8334 76.8503 73.2628C76.8503 80.7291 65.7688 81.216 60.9188 81.2478L60.0006 81.25C59.0451 81.25 58.2697 80.4703 58.2697 79.5096C58.2697 78.5489 59.0451 77.7692 60.0006 77.7692C66.1072 77.7692 73.3885 76.9872 73.3885 73.2628C73.3885 70.2972 68.8858 68.7959 60.0006 68.7959C53.894 68.7959 46.6127 69.5779 46.6127 73.3046C46.6127 74.1353 46.855 75.2051 48.7451 76.1356C49.5206 76.5185 50.5037 76.8387 51.6623 77.087C52.597 77.2866 53.1947 78.2125 52.9939 79.1523C52.7954 80.0921 51.8723 80.7 50.9422 80.4912C49.5067 80.1826 48.2559 79.7695 47.222 79.2636C43.8571 77.6045 43.1509 75.1076 43.1509 73.3046C43.1509 65.8362 54.2324 65.3491 59.0823 65.3173L60.9942 65.3173ZM77.6737 63.7444C78.9546 63.8302 80.2424 64.0182 81.5071 64.299C84.325 64.8605 86.1828 66.0138 86.9928 67.7194C87.669 69.1465 87.669 70.7801 86.9928 72.2072C86.192 73.8989 84.3388 75.0568 81.4794 75.6485C81.364 75.6741 81.2463 75.6857 81.1286 75.6857C80.3254 75.6857 79.6054 75.1171 79.4369 74.2957C79.2454 73.3536 79.8477 72.4323 80.7847 72.2397C83.1456 71.7501 83.7272 71.0075 83.868 70.7105C84.0919 70.2371 84.0919 69.6918 83.868 69.2184C83.5726 68.5942 82.4256 68.0303 80.7962 67.7055C79.6631 67.4548 78.5461 67.2901 77.4429 67.2158C76.4875 67.1532 75.7674 66.3201 75.832 65.3618C75.8944 64.4034 76.7275 63.6933 77.6737 63.7444ZM42.3448 63.7086C43.2679 63.6367 44.1241 64.3676 44.1887 65.326C44.2534 66.2867 43.5333 67.1174 42.5778 67.1801C41.4655 67.2544 40.3485 67.4191 39.2568 67.6651C37.5813 67.9969 36.4297 68.5631 36.132 69.1897C35.9081 69.6654 35.9081 70.2153 36.132 70.691C36.2751 70.9904 36.8567 71.7352 39.2268 72.2249C40.1638 72.4175 40.7662 73.3364 40.5746 74.2785C40.4085 75.1023 39.6861 75.6685 38.8807 75.6685C38.7653 75.6685 38.6499 75.6569 38.5322 75.6337C35.6681 75.0443 33.8103 73.884 33.0072 72.1854C32.3309 70.7583 32.3309 69.1224 33.0072 67.6953C33.8195 65.9804 35.682 64.8225 38.5437 64.2563C39.7646 63.9824 41.0593 63.7945 42.3448 63.7086ZM60.0013 38.75C66.2971 38.75 71.4206 43.8992 71.4206 50.2318C71.4206 56.5645 66.2971 61.7137 60.0013 61.7137C57.4234 61.7137 54.9932 60.8806 52.9761 59.3027C52.2215 58.7133 52.0853 57.6203 52.6715 56.8615C53.2554 56.1004 54.347 55.9658 55.1017 56.5575C56.5049 57.6528 58.1988 58.2329 60.0013 58.2329C64.3908 58.2329 67.9588 54.6431 67.9588 50.2318C67.9588 45.8206 64.3908 42.2308 60.0013 42.2308C55.6117 42.2308 52.0415 45.8206 52.0415 50.2318C52.0415 51.1925 51.266 51.9722 50.3106 51.9722C49.3551 51.9722 48.5797 51.1925 48.5797 50.2318C48.5797 43.8992 53.7031 38.75 60.0013 38.75ZM74.2082 41.1276C79.1794 41.1276 83.225 45.1931 83.225 50.1938C83.225 55.1922 79.1794 59.26 74.2082 59.26C73.2528 59.26 72.4773 58.4803 72.4773 57.5196C72.4773 56.5589 73.2528 55.7792 74.2082 55.7792C77.2708 55.7792 79.7632 53.2731 79.7632 50.1938C79.7632 47.1145 77.2708 44.6083 74.2082 44.6083C73.2528 44.6083 72.4773 43.8287 72.4773 42.868C72.4773 41.905 73.2528 41.1276 74.2082 41.1276ZM45.8209 41.0315C46.7763 41.0315 47.5517 41.8112 47.5517 42.7719C47.5517 43.7326 46.7763 44.5123 45.8209 44.5123C42.7468 44.5123 40.2451 47.0277 40.2451 50.1186C40.2451 53.2095 42.7468 55.7226 45.8209 55.7226C46.7763 55.7226 47.5517 56.5023 47.5517 57.463C47.5517 58.4237 46.7763 59.2034 45.8209 59.2034C40.8382 59.2034 36.7833 55.1286 36.7833 50.1186C36.7833 45.1086 40.8382 41.0315 45.8209 41.0315Z" fill="#2264D1"/>
</svg>
