<svg width="21" height="24" viewBox="0 0 21 24" fill="none" xmlns="http://www.w3.org/2000/svg">
<path fill-rule="evenodd" clip-rule="evenodd" d="M8.18458 20.7812C8.74574 21.4063 9.46616 21.7497 10.2137 21.7497H10.2147C10.9655 21.7497 11.6892 21.4063 12.2514 20.7801C12.5526 20.4475 13.0661 20.4204 13.3987 20.7205C13.7323 21.0206 13.7594 21.5352 13.4593 21.8678C12.584 22.8395 11.4324 23.3747 10.2147 23.3747H10.2126C8.99816 23.3736 7.84874 22.8384 6.97666 21.8667C6.67658 21.5341 6.70366 21.0195 7.03733 20.7205C7.37099 20.4193 7.88449 20.4464 8.18458 20.7812ZM10.2676 0.0830078C15.083 0.0830078 18.3179 3.83351 18.3179 7.33592C18.3179 9.13751 18.7761 9.90126 19.2625 10.7116C19.7435 11.5111 20.2884 12.4189 20.2884 14.1349C19.9104 18.5192 15.3333 18.8767 10.2676 18.8767C5.20194 18.8767 0.623779 18.5192 0.250014 14.2043C0.246779 12.4189 0.791695 11.5111 1.2727 10.7116L1.4425 10.4258C1.86059 9.70719 2.21736 8.92556 2.21736 7.33592C2.21736 3.83351 5.45219 0.0830078 10.2676 0.0830078ZM10.2676 1.70801C6.48136 1.70801 3.84236 4.67417 3.84236 7.33592C3.84236 9.58817 3.21728 10.6293 2.66478 11.5479C2.2217 12.2857 1.87178 12.8685 1.87178 14.1349C2.0527 16.1781 3.40145 17.2517 10.2676 17.2517C17.0959 17.2517 18.4869 16.1304 18.6667 14.0645C18.6634 12.8685 18.3135 12.2857 17.8704 11.5479C17.3179 10.6293 16.6929 9.58817 16.6929 7.33592C16.6929 4.67417 14.0539 1.70801 10.2676 1.70801Z" fill="black"/>
</svg>
