<svg width="50" height="50" viewBox="0 0 50 50" fill="none" xmlns="http://www.w3.org/2000/svg">
<path d="M46.3984 16.9754C47.4026 16.9875 48.2102 17.8032 48.2102 18.8052V34.9868C48.2102 44.2461 42.4214 50 33.1417 50H25.7622C24.7457 50 23.9183 49.1843 23.9062 48.1702C23.9182 47.1524 24.7422 46.3303 25.7622 46.3184H33.1417C40.455 46.3184 44.4983 42.306 44.5646 34.9868V18.8052C44.5646 17.7947 45.3856 16.9754 46.3984 16.9754ZM31.3079 1.94022C32.3243 1.95229 33.1417 2.77786 33.1417 3.79206C33.1417 4.2812 32.9455 4.74999 32.5968 5.09378C32.2481 5.43758 31.776 5.62775 31.2858 5.62186H15.0464C7.73307 5.62186 3.68978 9.65624 3.68978 16.9754V34.9868C3.68978 42.306 7.73307 46.3184 15.0464 46.3184C16.0664 46.3303 16.8904 47.1524 16.9023 48.1702C16.8902 49.1843 16.0628 50 15.0464 50C5.76666 50 0 44.2461 0 34.9868V16.9754C0 7.69416 5.76666 1.94022 15.0464 1.94022H31.3079ZM34.1014 18.6854C34.7467 18.2459 35.616 18.2585 36.2526 18.7471C36.9688 19.2968 37.177 20.2851 36.7431 21.0759L29.6729 30.1809C29.3634 30.5621 28.9219 30.8138 28.4356 30.8863C27.9516 30.9354 27.4676 30.7929 27.0879 30.4895L20.3048 25.1765L14.2068 33.0909C13.916 33.4856 13.4787 33.7475 12.9928 33.818C12.5069 33.8884 12.0131 33.7615 11.6217 33.4657C10.823 32.8409 10.6754 31.6919 11.2903 30.8863L18.5152 21.4948C18.8166 21.1054 19.2609 20.8517 19.75 20.7897C20.2391 20.7277 20.7329 20.8624 21.1223 21.1641L27.9053 26.4772L33.8709 18.8714L34.1014 18.6854ZM41.0029 0.499909C43.4295 -0.510247 46.227 0.0388239 48.0894 1.89076C49.9518 3.7427 50.5116 6.53221 49.5075 8.95687C48.5034 11.3815 46.1334 12.9631 43.5041 12.9631C39.9252 12.9631 37.0205 10.0747 37.0082 6.50369L37.023 6.04358C37.1878 3.60606 38.719 1.45064 41.0029 0.499909ZM43.5041 3.70388C41.9543 3.70388 40.6981 4.9574 40.6981 6.50369C40.6981 8.04998 41.9543 9.3035 43.5041 9.3035C45.0538 9.3035 46.3101 8.04998 46.3101 6.50369C46.3101 4.9574 45.0538 3.70388 43.5041 3.70388Z" fill="#2264D1"/>
</svg>
