<svg width="39" height="42" viewBox="0 0 39 42" fill="none" xmlns="http://www.w3.org/2000/svg">
<path fill-rule="evenodd" clip-rule="evenodd" d="M20.5344 0.00100708C21.9664 0.00100708 23.3584 0.589007 24.3564 1.61101C25.3524 2.63901 25.9024 4.04901 25.8604 5.47901C25.8644 5.80101 25.9704 6.17301 26.1624 6.49901C26.4804 7.03901 26.9824 7.41901 27.5784 7.57501C28.1744 7.72301 28.7984 7.64301 29.3284 7.32901C31.8884 5.86701 35.1464 6.74301 36.6084 9.28301L37.8544 11.441C37.8864 11.499 37.9144 11.555 37.9384 11.613C39.2624 14.115 38.3784 17.265 35.9184 18.703C35.5604 18.909 35.2704 19.197 35.0704 19.545C34.7604 20.083 34.6744 20.723 34.8304 21.311C34.9904 21.911 35.3724 22.409 35.9104 22.717C37.1244 23.415 38.0304 24.591 38.3924 25.949C38.7544 27.305 38.5564 28.777 37.8504 29.991L36.5224 32.203C35.0604 34.715 31.8024 35.585 29.2684 34.121C28.9304 33.927 28.5404 33.821 28.1524 33.811H28.1404C27.5624 33.811 26.9684 34.057 26.5364 34.487C26.0984 34.925 25.8584 35.509 25.8624 36.129C25.8484 39.067 23.4584 41.443 20.5344 41.443H18.0284C15.0904 41.443 12.7004 39.055 12.7004 36.117C12.6964 35.755 12.5924 35.379 12.3984 35.053C12.0844 34.505 11.5764 34.113 10.9904 33.957C10.4084 33.801 9.7704 33.887 9.2464 34.191C7.9904 34.891 6.5124 35.061 5.1604 34.681C3.8104 34.299 2.6444 33.371 1.9604 32.141L0.710395 29.987C-0.751605 27.451 0.118395 24.201 2.6504 22.737C3.3684 22.323 3.8144 21.551 3.8144 20.723C3.8144 19.895 3.3684 19.121 2.6504 18.707C0.116395 17.235 -0.751605 13.977 0.708395 11.441L2.0644 9.21501C3.5064 6.70701 6.7664 5.82301 9.3084 7.28301C9.6544 7.48901 10.0304 7.59301 10.4124 7.59701C11.6584 7.59701 12.7004 6.56901 12.7204 5.30501C12.7124 3.91101 13.2624 2.57301 14.2644 1.56301C15.2704 0.555007 16.6064 0.00100708 18.0284 0.00100708H20.5344ZM20.5344 3.00101H18.0284C17.4084 3.00101 16.8284 3.24301 16.3904 3.67901C15.9544 4.11701 15.7164 4.69901 15.7204 5.31901C15.6784 8.24301 13.2884 10.597 10.3944 10.597C9.4664 10.587 8.5724 10.337 7.7964 9.87301C6.7064 9.25301 5.2824 9.63501 4.6444 10.745L3.2904 12.971C2.6704 14.047 3.0504 15.469 4.1544 16.111C5.7924 17.059 6.8144 18.827 6.8144 20.723C6.8144 22.619 5.7924 24.385 4.1504 25.335C3.0524 25.971 2.6724 27.385 3.3084 28.485L4.5704 30.661C4.8824 31.223 5.3924 31.629 5.9824 31.795C6.5704 31.959 7.2184 31.889 7.7584 31.589C8.5524 31.123 9.4764 30.881 10.4044 30.881C10.8624 30.881 11.3204 30.939 11.7684 31.059C13.1204 31.423 14.2944 32.327 14.9904 33.541C15.4424 34.303 15.6924 35.193 15.7004 36.101C15.7004 37.401 16.7444 38.443 18.0284 38.443H20.5344C21.8124 38.443 22.8564 37.407 22.8624 36.129C22.8544 34.717 23.4064 33.375 24.4164 32.365C25.4124 31.369 26.8044 30.771 28.1964 30.811C29.1084 30.833 29.9864 31.079 30.7604 31.519C31.8744 32.157 33.2964 31.777 33.9404 30.677L35.2684 28.463C35.5644 27.953 35.6504 27.313 35.4924 26.723C35.3364 26.133 34.9444 25.621 34.4164 25.319C33.1804 24.607 32.2984 23.459 31.9324 22.083C31.5704 20.733 31.7684 19.259 32.4744 18.045C32.9344 17.245 33.6084 16.571 34.4164 16.107C35.5004 15.473 35.8804 14.055 35.2504 12.951C35.2244 12.907 35.2004 12.861 35.1804 12.813L34.0084 10.781C33.3704 9.67101 31.9504 9.28901 30.8364 9.92301C29.6324 10.635 28.2004 10.839 26.8244 10.477C25.4504 10.121 24.2984 9.25101 23.5804 8.02301C23.1204 7.25501 22.8704 6.36101 22.8624 5.45101C22.8804 4.76701 22.6404 4.15301 22.2044 3.70301C21.7704 3.25501 21.1604 3.00101 20.5344 3.00101ZM19.2902 13.9492C23.0242 13.9492 26.0622 16.9892 26.0622 20.7232C26.0622 24.4572 23.0242 27.4932 19.2902 27.4932C15.5562 27.4932 12.5182 24.4572 12.5182 20.7232C12.5182 16.9892 15.5562 13.9492 19.2902 13.9492ZM19.2902 16.9492C17.2102 16.9492 15.5182 18.6432 15.5182 20.7232C15.5182 22.8032 17.2102 24.4932 19.2902 24.4932C21.3702 24.4932 23.0622 22.8032 23.0622 20.7232C23.0622 18.6432 21.3702 16.9492 19.2902 16.9492Z" fill="black"/>
</svg>
