<svg width="22" height="22" viewBox="0 0 22 22" fill="none" xmlns="http://www.w3.org/2000/svg">
<path d="M6.52016 0.333252H15.4802C18.8935 0.333252 21.6668 3.10659 21.6668 6.51992V15.4799C21.6668 17.1207 21.015 18.6943 19.8548 19.8546C18.6946 21.0148 17.121 21.6666 15.4802 21.6666H6.52016C3.10683 21.6666 0.333496 18.8933 0.333496 15.4799V6.51992C0.333496 4.87911 0.985304 3.30551 2.14553 2.14528C3.30575 0.98506 4.87936 0.333252 6.52016 0.333252ZM6.30683 2.46659C5.2884 2.46659 4.31168 2.87116 3.59154 3.5913C2.8714 4.31144 2.46683 5.28815 2.46683 6.30659V15.6933C2.46683 17.8159 4.18416 19.5333 6.30683 19.5333H15.6935C16.7119 19.5333 17.6886 19.1287 18.4088 18.4085C19.1289 17.6884 19.5335 16.7117 19.5335 15.6933V6.30659C19.5335 4.18392 17.8162 2.46659 15.6935 2.46659H6.30683ZM16.6002 4.06659C16.9538 4.06659 17.2929 4.20706 17.543 4.45711C17.793 4.70716 17.9335 5.0463 17.9335 5.39992C17.9335 5.75354 17.793 6.09268 17.543 6.34273C17.2929 6.59278 16.9538 6.73325 16.6002 6.73325C16.2465 6.73325 15.9074 6.59278 15.6574 6.34273C15.4073 6.09268 15.2668 5.75354 15.2668 5.39992C15.2668 5.0463 15.4073 4.70716 15.6574 4.45711C15.9074 4.20706 16.2465 4.06659 16.6002 4.06659ZM11.0002 5.66659C12.4147 5.66659 13.7712 6.22849 14.7714 7.22868C15.7716 8.22888 16.3335 9.58543 16.3335 10.9999C16.3335 12.4144 15.7716 13.771 14.7714 14.7712C13.7712 15.7713 12.4147 16.3333 11.0002 16.3333C9.58568 16.3333 8.22912 15.7713 7.22893 14.7712C6.22873 13.771 5.66683 12.4144 5.66683 10.9999C5.66683 9.58543 6.22873 8.22888 7.22893 7.22868C8.22912 6.22849 9.58568 5.66659 11.0002 5.66659ZM11.0002 7.79992C10.1515 7.79992 9.33754 8.13706 8.73742 8.73718C8.1373 9.33729 7.80016 10.1512 7.80016 10.9999C7.80016 11.8486 8.1373 12.6625 8.73742 13.2627C9.33754 13.8628 10.1515 14.1999 11.0002 14.1999C11.8489 14.1999 12.6628 13.8628 13.2629 13.2627C13.863 12.6625 14.2002 11.8486 14.2002 10.9999C14.2002 10.1512 13.863 9.33729 13.2629 8.73718C12.6628 8.13706 11.8489 7.79992 11.0002 7.79992Z" fill="#2264D1"/>
</svg>
