<svg width="80" height="84" viewBox="0 0 80 84" fill="none" xmlns="http://www.w3.org/2000/svg">
<path d="M23.3288 58.0503C25.1697 58.0503 26.664 59.4877 26.664 61.2586V65.1794C26.664 71.8335 32.2949 77.2501 39.2079 77.2501H60.3193C67.2626 77.2501 72.9108 71.8168 72.9108 65.1377C72.9108 63.3669 74.4052 61.9294 76.246 61.9294C78.0869 61.9294 79.5812 63.3669 79.5812 65.1377C79.5812 75.3542 70.94 83.6667 60.3193 83.6667H39.2079C28.6132 83.6667 19.9936 75.3751 19.9936 65.1794V61.2586C19.9936 59.4877 21.4879 58.0503 23.3288 58.0503ZM53.4219 38.7884C54.7155 38.7884 55.8806 39.5717 56.374 40.7758C56.8674 41.9758 56.5896 43.3591 55.6775 44.2758L43.5622 56.3924C42.9403 57.0132 42.1235 57.3257 41.3067 57.3257C40.4899 57.3257 39.6689 57.0132 39.047 56.384C37.8031 55.1257 37.8073 53.0966 39.0553 51.8466L45.6892 45.2091H3.60933C1.84719 45.2091 0.416748 43.7716 0.416748 42.0008C0.416748 40.23 1.84719 38.7884 3.60933 38.7884H53.4219ZM60.3648 0.333328C70.9595 0.333328 79.5834 8.62491 79.5834 18.8206V50.5453C79.5834 52.3161 78.0847 53.7495 76.2482 53.7495C74.403 53.7495 72.9087 52.3161 72.9087 50.5453V18.8206C72.9087 12.1665 67.2821 6.74993 60.3648 6.74993H39.2534C32.3101 6.74993 26.6618 12.1832 26.6618 18.8623V22.7414C26.6618 24.5123 25.1718 25.9456 23.3266 25.9456C21.4858 25.9456 19.9914 24.5123 19.9914 22.7414V18.8623C19.9914 8.64575 28.6327 0.333328 39.2534 0.333328H60.3648ZM39.0379 27.6243C40.2735 26.3618 42.2927 26.3535 43.5531 27.5993L46.6089 30.6326C47.861 31.8743 47.8735 33.9076 46.6296 35.1659C46.0077 35.8034 45.1867 36.1201 44.3616 36.1201C43.5531 36.1201 42.7404 35.8117 42.1144 35.1909L39.0628 32.1618C37.8106 30.9159 37.7982 28.8868 39.0379 27.6243Z" fill="#2264D1"/>
</svg>
