<svg width="42" height="40" viewBox="0 0 42 40" fill="none" xmlns="http://www.w3.org/2000/svg">
<path fill-rule="evenodd" clip-rule="evenodd" d="M18.6165 0C23.5085 0 27.4885 3.98 27.4885 8.872V10.736C27.4885 11.564 26.8165 12.236 25.9885 12.236C25.1605 12.236 24.4885 11.564 24.4885 10.736V8.872C24.4885 5.632 21.8545 3 18.6165 3H8.86649C5.63249 3 3.00049 5.632 3.00049 8.872V31.13C3.00049 34.368 5.63249 37 8.86649 37H18.6385C21.8625 37 24.4885 34.376 24.4885 31.152V29.266C24.4885 28.438 25.1605 27.766 25.9885 27.766C26.8165 27.766 27.4885 28.438 27.4885 29.266V31.152C27.4885 36.032 23.5165 40 18.6385 40H8.86649C3.97849 40 0.000488281 36.022 0.000488281 31.13V8.872C0.000488281 3.98 3.97849 0 8.86649 0H18.6165ZM34.7767 13.108L40.6327 18.938C40.6849 18.9898 40.7317 19.0437 40.7745 19.1008L40.6327 18.938C40.7035 19.0079 40.7666 19.0842 40.8212 19.1656C40.8453 19.2025 40.8685 19.2406 40.89 19.2798C40.9075 19.3105 40.9236 19.3424 40.9384 19.3749C40.9511 19.4036 40.9632 19.4324 40.9744 19.4615C40.9895 19.4995 41.0027 19.5386 41.0143 19.5782C41.023 19.6094 41.031 19.6405 41.0381 19.672C41.047 19.7102 41.054 19.7486 41.0596 19.7874C41.0627 19.8125 41.0658 19.8389 41.0681 19.8655C41.0727 19.9111 41.0747 19.9555 41.0747 20L41.0645 20.124L41.0604 20.2035C41.0599 20.2068 41.0595 20.2102 41.059 20.2136L41.0747 20C41.0747 20.111 41.0624 20.221 41.0385 20.3278C41.031 20.3595 41.023 20.3906 41.014 20.4213C41.0027 20.4614 40.9895 20.5005 40.9747 20.5389C40.9632 20.5676 40.9511 20.5964 40.9381 20.6246C40.9235 20.6576 40.9075 20.6895 40.8903 20.7209C40.8685 20.7594 40.8453 20.7975 40.8205 20.8345C40.8065 20.8564 40.7911 20.8781 40.7751 20.8993C40.7274 20.962 40.6755 21.0209 40.6194 21.0755L34.7767 26.894C34.4847 27.186 34.1007 27.332 33.7187 27.332C33.3347 27.332 32.9487 27.186 32.6567 26.89C32.0727 26.302 32.0747 25.354 32.6607 24.77L35.9405 21.5H15.4921C14.6641 21.5 13.9921 20.828 13.9921 20C13.9921 19.172 14.6641 18.5 15.4921 18.5H35.9445L32.6607 15.232C32.0747 14.648 32.0707 13.7 32.6567 13.112C33.2407 12.524 34.1887 12.524 34.7767 13.108Z" fill="black"/>
</svg>
