<svg width="20" height="20" viewBox="0 0 20 20" fill="none" xmlns="http://www.w3.org/2000/svg">
<path d="M8.79178 2.38296C9.29343 1.39356 10.7066 1.39356 11.2082 2.38296C11.5613 3.07925 12.4282 3.33382 13.1017 2.93893C14.0586 2.3778 15.2474 3.1418 15.1345 4.24535C15.0551 5.02198 15.6468 5.70485 16.4268 5.73673C17.5352 5.78204 18.1222 7.06747 17.4306 7.9348C16.9439 8.54519 17.0725 9.43956 17.7115 9.8881C18.6194 10.5254 18.4183 11.9242 17.3676 12.2799C16.6281 12.5303 16.2528 13.3522 16.5478 14.075C16.967 15.102 16.0416 16.17 14.9654 15.9012C14.2079 15.712 13.4478 16.2006 13.3052 16.9681C13.1027 18.0588 11.7468 18.4569 10.9867 17.6489C10.4518 17.0803 9.54822 17.0803 9.01331 17.6489C8.25323 18.4569 6.89734 18.0588 6.69475 16.9681C6.55219 16.2005 5.79206 15.712 5.03464 15.9012C3.95839 16.17 3.03298 15.102 3.45221 14.075C3.74724 13.3522 3.37189 12.5303 2.63244 12.2799C1.58172 11.9242 1.38061 10.5254 2.28854 9.8881C2.92751 9.43956 3.0561 8.54519 2.56938 7.9348C1.87779 7.06747 2.46483 5.78204 3.57321 5.73673C4.35324 5.70485 4.94495 5.02198 4.8655 4.24535C4.7526 3.1418 5.94141 2.3778 6.89834 2.93893C7.57178 3.33382 8.43874 3.07925 8.79178 2.38296Z" fill="#3D56F5"/>
<path d="M14 7L8.5 12.5L6 10" stroke="white" stroke-width="2" stroke-linecap="round" stroke-linejoin="round"/>
</svg>
