<svg width="15" height="15" viewBox="0 0 15 15" fill="none" xmlns="http://www.w3.org/2000/svg">
<path d="M6.25 2.74988H2.5C2.10218 2.74988 1.72064 2.90791 1.43934 3.18922C1.15804 3.47052 1 3.85205 1 4.24988V12.4999C1 12.8977 1.15804 13.2792 1.43934 13.5605C1.72064 13.8418 2.10218 13.9999 2.5 13.9999H10.75C11.1478 13.9999 11.5294 13.8418 11.8107 13.5605C12.092 13.2792 12.25 12.8977 12.25 12.4999V8.74988M11.1895 1.68938C11.3279 1.54611 11.4934 1.43184 11.6764 1.35323C11.8594 1.27461 12.0562 1.23323 12.2554 1.2315C12.4546 1.22977 12.6521 1.26772 12.8364 1.34315C13.0208 1.41857 13.1883 1.52995 13.3291 1.67079C13.4699 1.81162 13.5813 1.9791 13.6567 2.16345C13.7322 2.34779 13.7701 2.54531 13.7684 2.74448C13.7666 2.94365 13.7253 3.14048 13.6467 3.32348C13.568 3.50649 13.4538 3.67201 13.3105 3.81038L6.871 10.2499H4.75V8.12888L11.1895 1.68938Z" stroke="#2264D1" stroke-width="2" stroke-linecap="round" stroke-linejoin="round"/>
</svg>
