<svg width="17" height="17" viewBox="0 0 17 17" fill="none" xmlns="http://www.w3.org/2000/svg">
<path fill-rule="evenodd" clip-rule="evenodd" d="M8.0042 10.3482L11.0517 15.2923C11.185 15.509 11.3934 15.5065 11.4775 15.4948C11.5617 15.4832 11.7642 15.4315 11.8375 15.1857L15.6484 2.31484C15.715 2.08733 15.5925 1.93234 15.5375 1.87734C15.4842 1.82234 15.3317 1.70484 15.1109 1.76734L2.23087 5.539C1.9867 5.61067 1.93337 5.81567 1.9217 5.89984C1.91004 5.98567 1.9067 6.19817 2.12254 6.334L7.12337 9.4615L11.5417 4.9965C11.7842 4.7515 12.18 4.749 12.4259 4.9915C12.6717 5.234 12.6734 5.63067 12.4309 5.87567L8.0042 10.3482ZM11.4125 16.7498C10.8325 16.7498 10.3009 16.4548 9.98754 15.9482L6.7567 10.7057L1.46004 7.39317C0.889202 7.03567 0.590869 6.399 0.683369 5.72984C0.775036 5.06067 1.2342 4.529 1.8792 4.33983L14.7592 0.568168C15.3517 0.394835 15.9867 0.559002 16.4234 0.994002C16.86 1.43317 17.0225 2.07484 16.8459 2.66984L13.035 15.5398C12.8442 16.1873 12.3109 16.6448 11.6434 16.734C11.565 16.744 11.4892 16.7498 11.4125 16.7498Z" fill="black"/>
</svg>
