<svg width="60" height="60" viewBox="0 0 60 60" fill="none" xmlns="http://www.w3.org/2000/svg">
<path d="M46.5049 59.751C46.1358 59.76 45.7697 59.667 45.4486 59.4811L30.0308 51.364L16.4554 58.6712C14.2408 59.871 11.4681 59.0491 10.2678 56.8324C10.2528 56.8054 10.2378 56.7784 10.2228 56.7484C9.75169 55.8215 9.58665 54.7746 9.74869 53.7487L12.3893 38.1686L1.35259 26.9979C-0.450863 25.1381 -0.450863 22.1805 1.35259 20.3177C2.05476 19.5798 2.985 19.1029 3.99325 18.9649L19.126 16.6672L25.8567 2.64982C26.904 0.37009 29.6016 -0.631791 31.8852 0.415084C32.8755 0.86803 33.6677 1.66294 34.1208 2.64982L40.8815 16.7151L56.0653 19.0399C57.2926 19.2228 58.3938 19.9008 59.114 20.9116C60.4584 22.8434 60.2543 25.4531 58.6279 27.1539L47.6422 38.1926L49.1725 46.5886C49.3856 47.8484 48.5544 49.0513 47.2971 49.2883C46.0608 49.5102 44.8785 48.6883 44.6564 47.4495L43.099 39.0535C42.838 37.5147 43.3271 35.9429 44.4193 34.83L55.4321 23.7133L40.2483 21.3586C38.7089 21.1096 37.4036 20.0897 36.7884 18.6589L30.0308 4.65358L23.189 18.8809C22.5739 20.3147 21.2686 21.3316 19.7292 21.5806L4.5964 23.8783L15.5281 34.977C16.6174 36.0718 17.1065 37.6227 16.8485 39.1435L14.2078 54.7236L27.7802 47.4465C29.1245 46.6906 30.7659 46.6906 32.1103 47.4465L47.5071 55.5635C48.4464 56.0765 48.9235 57.1593 48.6684 58.2002C48.4344 59.2411 47.5161 59.982 46.4509 60L46.5049 59.751Z" fill="#2264D1"/>
</svg>
