<svg width="56" height="44" viewBox="0 0 56 44" fill="none" xmlns="http://www.w3.org/2000/svg">
<path d="M28.9942 27.3173C34.1539 27.3489 44.8503 27.8334 44.8503 35.2628C44.8503 42.7291 33.7688 43.216 28.9188 43.2478L28.0006 43.25C27.0451 43.25 26.2697 42.4703 26.2697 41.5096C26.2697 40.5489 27.0451 39.7692 28.0006 39.7692C34.1072 39.7692 41.3885 38.9872 41.3885 35.2628C41.3885 32.2972 36.8858 30.7959 28.0006 30.7959C21.894 30.7959 14.6127 31.5779 14.6127 35.3046C14.6127 36.1353 14.855 37.2051 16.7451 38.1356C17.5206 38.5185 18.5037 38.8387 19.6623 39.087C20.597 39.2866 21.1947 40.2125 20.9939 41.1523C20.7954 42.0921 19.8723 42.7 18.9422 42.4912C17.5067 42.1826 16.2559 41.7695 15.222 41.2636C11.8571 39.6045 11.1509 37.1076 11.1509 35.3046C11.1509 27.8362 22.2324 27.3491 27.0823 27.3173L28.9942 27.3173ZM45.6737 25.7444C46.9546 25.8302 48.2424 26.0182 49.5071 26.299C52.325 26.8605 54.1828 28.0138 54.9928 29.7194C55.669 31.1465 55.669 32.7801 54.9928 34.2072C54.192 35.8989 52.3388 37.0568 49.4794 37.6485C49.364 37.6741 49.2463 37.6857 49.1286 37.6857C48.3254 37.6857 47.6054 37.1171 47.4369 36.2957C47.2454 35.3536 47.8477 34.4323 48.7847 34.2397C51.1456 33.7501 51.7272 33.0075 51.868 32.7105C52.0919 32.2371 52.0919 31.6918 51.868 31.2184C51.5726 30.5942 50.4256 30.0303 48.7962 29.7055C47.6631 29.4548 46.5461 29.2901 45.4429 29.2158C44.4875 29.1532 43.7674 28.3201 43.832 27.3618C43.8944 26.4034 44.7275 25.6933 45.6737 25.7444ZM10.3448 25.7086C11.2679 25.6367 12.1241 26.3676 12.1887 27.326C12.2534 28.2867 11.5333 29.1174 10.5778 29.1801C9.46546 29.2544 8.34846 29.4191 7.25684 29.6651C5.58133 29.9969 4.42971 30.5631 4.13199 31.1897C3.90813 31.6654 3.90813 32.2153 4.13199 32.691C4.27508 32.9904 4.85666 33.7352 7.22684 34.2249C8.16383 34.4175 8.76618 35.3364 8.57463 36.2785C8.40846 37.1023 7.6861 37.6685 6.88066 37.6685C6.76526 37.6685 6.64987 37.6569 6.53217 37.6337C3.66812 37.0443 1.81029 35.884 1.00715 34.1854C0.330949 32.7583 0.330949 31.1224 1.00715 29.6953C1.81952 27.9804 3.68196 26.8225 6.54371 26.2563C7.76457 25.9824 9.05928 25.7945 10.3448 25.7086ZM28.0013 0.75C34.2971 0.75 39.4206 5.89919 39.4206 12.2318C39.4206 18.5645 34.2971 23.7137 28.0013 23.7137C25.4234 23.7137 22.9932 22.8806 20.9761 21.3027C20.2215 20.7133 20.0853 19.6203 20.6715 18.8615C21.2554 18.1004 22.347 17.9658 23.1017 18.5575C24.5049 19.6528 26.1988 20.2329 28.0013 20.2329C32.3908 20.2329 35.9588 16.6431 35.9588 12.2318C35.9588 7.82057 32.3908 4.23075 28.0013 4.23075C23.6117 4.23075 20.0415 7.82057 20.0415 12.2318C20.0415 13.1925 19.266 13.9722 18.3106 13.9722C17.3551 13.9722 16.5797 13.1925 16.5797 12.2318C16.5797 5.89919 21.7031 0.75 28.0013 0.75ZM42.2082 3.12759C47.1794 3.12759 51.225 7.19311 51.225 12.1938C51.225 17.1922 47.1794 21.26 42.2082 21.26C41.2528 21.26 40.4773 20.4803 40.4773 19.5196C40.4773 18.5589 41.2528 17.7792 42.2082 17.7792C45.2708 17.7792 47.7632 15.2731 47.7632 12.1938C47.7632 9.11448 45.2708 6.60834 42.2082 6.60834C41.2528 6.60834 40.4773 5.82865 40.4773 4.86796C40.4773 3.90495 41.2528 3.12759 42.2082 3.12759ZM13.8209 3.03152C14.7763 3.03152 15.5517 3.81121 15.5517 4.77189C15.5517 5.73258 14.7763 6.51227 13.8209 6.51227C10.7468 6.51227 8.24506 9.0277 8.24506 12.1186C8.24506 15.2095 10.7468 17.7226 13.8209 17.7226C14.7763 17.7226 15.5517 18.5023 15.5517 19.463C15.5517 20.4237 14.7763 21.2034 13.8209 21.2034C8.83818 21.2034 4.78327 17.1286 4.78327 12.1186C4.78327 7.10864 8.83818 3.03152 13.8209 3.03152Z" fill="#2264D1"/>
</svg>
