<svg width="26" height="19" viewBox="0 0 26 19" fill="none" xmlns="http://www.w3.org/2000/svg">
<path d="M13.0818 0.198486H13.2242C14.5394 0.203286 21.2034 0.251287 23.0002 0.734487C23.5434 0.881956 24.0384 1.1694 24.4357 1.5681C24.8329 1.9668 25.1186 2.46278 25.2642 3.00649C25.4258 3.61449 25.5394 4.41929 25.6162 5.24969L25.6322 5.41609L25.6674 5.83209L25.6802 5.99849C25.7842 7.46089 25.797 8.83049 25.7986 9.12969V9.24969C25.797 9.56009 25.7826 11.0225 25.6674 12.5457L25.6546 12.7137L25.6402 12.8801C25.5602 13.7953 25.4418 14.7041 25.2642 15.3729C25.1191 15.9168 24.8335 16.413 24.4362 16.8118C24.0388 17.2106 23.5436 17.4979 23.0002 17.6449C21.1442 18.1441 14.0898 18.1793 13.1122 18.1809H12.885C12.3906 18.1809 10.3458 18.1713 8.2018 18.0977L7.9298 18.0881L7.7906 18.0817L7.517 18.0705L7.2434 18.0593C5.4674 17.9809 3.7762 17.8545 2.997 17.6433C2.45378 17.4964 1.9587 17.2093 1.56135 16.8109C1.16401 16.4124 0.87835 15.9165 0.732995 15.3729C0.555395 14.7057 0.436995 13.7953 0.356995 12.8801L0.344195 12.7121L0.331395 12.5457C0.252431 11.4615 0.208675 10.3751 0.200195 9.28809L0.200195 9.09129C0.203395 8.74729 0.216195 7.55849 0.302595 6.24649L0.313795 6.08169L0.318595 5.99849L0.331395 5.83209L0.366595 5.41609L0.382595 5.24969C0.459395 4.41929 0.572995 3.61289 0.734595 3.00649C0.879705 2.46256 1.16525 1.96634 1.56262 1.56758C1.95998 1.16881 2.45519 0.881514 2.9986 0.734487C3.7778 0.526487 5.469 0.398486 7.245 0.318486L7.517 0.307286L7.7922 0.297687L7.9298 0.292887L8.20339 0.281687C9.72613 0.232686 11.2495 0.205483 12.773 0.200086H13.0818V0.198486ZM10.4402 5.33449V13.0433L17.0914 9.19049L10.4402 5.33449Z" fill="#2264D1"/>
</svg>
